PathFileType	4	(X/Y/Z)	c:\Git\powerlifing_model_clean\simulations\HC835B\Session1\HC835B_OGR_0001\marker_experimental.trc
DataRate	CameraRate	NumFrames	NumMarkers	Units	OrigDataRate	OrigDataStartFrame	OrigNumFrames
240.000000	240.000000	4	38	mm	240.000000	53	213
Frame#	Time	RPSI			LPSI			RASI			LASI			RTH1			RTH2			RTH3			RTH4			RSK1			RSK2			RSK3			RSK4			RCAL1			RCAL2			RCAL3			RST			RPT			RTN			RFMB			RSMB			RVMB			RFMH			RSMH			RVMH			RPM			LTH1			LTH2			LTH3			LTH4			LSK1			LSK2			LSK3			LSK4			LCAL1			LCAL2			LCAL3			LFMH			LVMH			
		X1	Y1	Z1	X2	Y2	Z2	X3	Y3	Z3	X4	Y4	Z4	X5	Y5	Z5	X6	Y6	Z6	X7	Y7	Z7	X8	Y8	Z8	X9	Y9	Z9	X10	Y10	Z10	X11	Y11	Z11	X12	Y12	Z12	X13	Y13	Z13	X14	Y14	Z14	X15	Y15	Z15	X16	Y16	Z16	X17	Y17	Z17	X18	Y18	Z18	X19	Y19	Z19	X20	Y20	Z20	X21	Y21	Z21	X22	Y22	Z22	X23	Y23	Z23	X24	Y24	Z24	X25	Y25	Z25	X26	Y26	Z26	X27	Y27	Z27	X28	Y28	Z28	X29	Y29	Z29	X30	Y30	Z30	X31	Y31	Z31	X32	Y32	Z32	X33	Y33	Z33	X34	Y34	Z34	X35	Y35	Z35	X36	Y36	Z36	X37	Y37	Z37	X38	Y38	Z38	

54	0.2208333333333333	527.9228515625001	1118.83642578125	-350.8782653808594	423.2072143554689	1108.796020507813	-347.7439880371094	601.3170776367189	1039.226806640625	-545.2266845703126	351.4545593261719	1029.317504882813	-542.6031494140626	657.0328979492189	773.5610351562502	-452.506317138672	648.4233398437501	759.2906494140626	-510.9791870117189	640.6476440429689	692.5346069335939	-470.5848083496095	621.3822631835939	679.4751586914064	-524.3784790039064	565.1906127929689	300.1260986328126	-277.8185119628907	561.6776733398439	261.0010986328126	-325.5982666015626	555.0642089843751	243.0034637451172	-267.8882141113282	540.3339233398439	207.6658172607422	-314.3627319335938	484.9233398437501	116.819076538086	-143.9579010009766	452.2782287597657	80.92864990234376	-149.721435546875	516.0419311523439	79.57119750976564	-141.1216888427735	442.5115966796876	87.43997955322267	-220.5431365966797	544.2737426757814	82.85586547851564	-199.8634338378907	458.8229980468751	96.63123321533206	-278.0528259277344	466.2462158203126	76.50263977050783	-305.8567810058594	516.0040893554689	97.09195709228518	-314.1163635253907	556.9091186523439	51.49525451660158	-238.003402709961	468.6941528320314	46.94181442260743	-358.2856445312501	524.4130859375001	55.12958145141603	-367.8532409667969	579.9044799804689	37.84754943847657	-312.1115722656251	516.6589965820314	39.08363342285157	-425.9027404785157	271.9576110839844	776.6739501953127	-535.4019165039064	275.4678649902344	788.5554199218752	-594.6990356445314	268.8047485351563	708.0025634765626	-586.2339477539064	288.0781860351563	718.3665771484376	-643.4642333984376	314.3660888671876	527.3469238281251	-353.0447998046876	309.1868591308594	473.465057373047	-350.1847839355469	319.7366333007813	495.0997924804689	-306.6568908691407	328.0070495605469	441.4748535156251	-304.9296264648438	387.0968322753907	512.2051391601564	-159.143798828125	362.2308349609376	503.0353088378907	-119.5391159057617	420.6019897460939	499.7775268554689	-126.8639755249024	428.9497375488282	286.4932556152344	-176.2751159667969	321.8749084472657	314.9612731933594	-135.7160186767578	
55	0.225	528.5794067382814	1121.362182617188	-365.3855590820313	423.5261230468751	1111.623657226563	-361.8906250000001	600.3176269531251	1041.00048828125	-560.1637573242189	351.5607910156251	1032.06494140625	-556.6797485351564	656.0671997070314	775.5214843750002	-461.3675537109376	647.5037841796876	759.9741210937501	-519.5361328125001	639.5932617187501	693.8654785156251	-477.778289794922	620.3743286132814	679.9474487304689	-531.2592163085939	565.7332763671876	302.9927978515626	-280.2753295898438	562.1161499023439	263.6644592285157	-327.8802795410157	555.7600097656251	245.9763488769532	-270.0558471679688	541.0780029296876	210.3146514892579	-316.3000183105469	486.7253723144532	120.7247467041016	-145.3711547851563	453.4468688964845	85.0388641357422	-150.6284637451172	517.1918945312501	82.99253845214845	-142.1071319580078	443.6568298339845	90.69139099121095	-221.4246978759766	545.3928222656251	85.18380737304689	-200.8408508300782	460.1649169921876	98.76760864257815	-278.9099426269532	467.0547180175782	77.72349548339845	-306.4602661132813	517.0429077148439	97.90581512451175	-315.9057006835938	557.6276855468751	53.0102005004883	-238.6709136962891	468.9136047363282	47.10401916503907	-358.3751525878907	524.7295532226564	54.81042480468751	-368.1008300781251	580.1769409179689	37.87158966064454	-312.2904968261719	516.6633300781251	39.05395126342774	-425.7875976562501	271.9093322753907	780.2978515625002	-551.4211425781251	275.3128967285157	793.157165527344	-610.5256347656251	268.8806762695313	712.4940185546876	-603.3751220703126	287.7951354980469	724.2966918945314	-660.1832885742189	314.4440612792969	524.1563110351564	-373.5513610839844	309.4965515136719	470.316375732422	-372.1603088378907	319.9197998046876	490.5401000976564	-328.1269226074219	329.2591857910157	436.1907043457032	-329.7943420410157	387.5335388183595	503.3037414550782	-179.4676971435547	362.1636657714844	492.6616210937501	-140.2813415527344	420.5256958007814	489.5017089843751	-147.6242370605469	429.0864562988282	278.6053466796876	-204.6845397949219	321.6305847167969	305.4320983886719	-163.5399475097657	
56	0.2291666666666667	529.1527709960939	1123.989868164063	-379.9718627929688	423.7810363769532	1114.572387695313	-376.0949707031251	599.2302856445314	1043.2802734375	-574.8124389648439	351.6341857910157	1034.889892578125	-570.9372558593751	655.0765991210939	777.716491699219	-470.4158020019532	646.4654541015626	760.9808959960939	-528.2875366210939	638.6806030273439	695.9746704101564	-485.1681213378907	619.2186279296876	680.7966918945314	-538.3066406250001	566.3786010742189	306.1659851074219	-283.0962524414063	562.7116699218751	266.6763000488282	-330.4772338867188	556.6005859375001	249.1801910400391	-272.5688171386719	541.8616333007814	213.3222656250001	-318.5982055664063	489.0686035156251	124.5499267578125	-148.7218322753907	454.7825622558595	89.58969879150392	-151.763900756836	518.5383300781251	86.8971633911133	-143.318588256836	444.9842224121095	94.30821228027345	-222.6489868164063	546.7910766601564	87.86426544189455	-202.028549194336	461.3576965332032	101.1004714965821	-280.1653137207032	468.0066223144532	79.34908294677736	-307.3659362792969	518.0825805664064	98.81817626953128	-317.0726928710938	558.4415283203126	54.71226119995119	-239.4500122070313	469.164031982422	47.3461036682129	-358.5345764160157	525.0346679687501	54.37887954711915	-368.4301757812501	580.5137329101564	37.89160156250001	-312.5267944335938	516.6386108398439	39.04169082641602	-425.7840881347657	271.8355102539063	783.8149414062502	-567.3330078125001	274.7680358886719	797.8411254882815	-626.7829589843751	268.9906921386719	716.9555664062501	-620.5113525390626	288.0139465332032	729.4611816406251	-677.4058227539064	314.5398559570313	520.5277709960939	-393.9923706054689	308.9918518066407	466.8333435058595	-394.1600952148439	319.4764099121094	486.3496704101564	-349.0065917968751	329.7579650878907	430.694549560547	-353.8645629882813	387.7123107910157	494.107635498047	-199.9261474609376	362.2069396972657	481.9472045898439	-161.2837829589844	420.5738220214845	479.0034790039064	-168.5379180908203	428.9094238281251	270.4656372070313	-233.2804565429688	321.3131408691407	295.8134765625001	-191.7256774902344	
57	0.2333333333333333	529.7894287109376	1126.71875	-394.6329956054689	423.978485107422	1117.606811523438	-390.3880004882814	598.2905883789064	1045.020385742188	-589.2697753906251	351.6971740722657	1037.593994140625	-585.2691040039064	654.0292968750001	780.1592407226565	-479.7102661132814	645.3283691406251	762.3499145507814	-537.2645874023439	637.5929565429689	698.2140502929689	-492.8818359375001	617.9475097656251	682.0051269531251	-545.6478881835939	567.2955932617189	309.6405639648438	-286.1165161132813	563.3717651367189	269.9979858398438	-333.3991699218751	557.6109619140626	252.7909240722657	-275.3753967285157	542.7889404296876	216.5863647460938	-321.1706237792969	490.9375610351564	129.1329193115235	-150.7523803710938	456.1787719726564	94.53877258300783	-153.2534942626953	519.8750000000001	91.10363006591798	-144.8214416503907	446.3570861816407	98.12663269042972	-224.0001220703126	548.1105957031251	90.59350585937501	-203.4792633056641	462.3500976562501	103.921142578125	-282.8547973632813	468.9378356933595	80.8540725708008	-308.2869873046876	519.1472167968751	99.70503234863284	-318.4564819335938	559.8151855468751	57.05256271362306	-240.3294830322266	469.384979248047	47.59334945678712	-358.7099304199219	525.4074707031251	54.00514602661134	-368.8968200683594	580.8365478515626	37.91344070434571	-312.7823181152344	516.6444702148439	39.04749298095704	-425.7583007812501	271.6454772949219	787.4975585937502	-583.4145507812501	274.4754333496094	802.4089355468752	-642.6289672851564	269.0857849121094	721.4122314453126	-637.4998168945314	288.0594482421876	734.7647094726564	-694.1096191406251	314.6842956542969	517.0156250000001	-414.3052673339845	309.4017333984376	463.1717834472657	-416.3775024414064	319.6924743652344	481.4485778808595	-370.3754882812501	330.0427856445313	426.2175598144532	-377.1728820800782	387.8889160156251	484.4190063476564	-220.6471710205079	362.2914428710938	470.9631958007814	-182.5546264648438	420.6795654296876	468.1280212402345	-189.7697448730469	428.5921936035157	261.8775329589844	-262.9357299804688	321.1079101562501	285.9741821289063	-220.1617431640626	
